<svg xmlns="http://www.w3.org/2000/svg" viewBox="0 0 320 240">
  <rect width="320" height="240" fill="#e7f4ee"/>
  <path d="M42 45h236v160H42Z" fill="#fff"/>
  <path d="M42 45h86v160H42Z" fill="#0e9d88"/>
  <circle cx="180" cy="117" r="65" fill="#f2b95f"/>
  <path d="m180 55 24 43 49 9-34 35 7 49-46-22-46 22 7-49-34-35 49-9Z" fill="#e45c49"/>
  <circle cx="180" cy="117" r="31" fill="#f7e9bb"/>
  <path d="M58 63h52v7H58zm0 17h34v7H58zm0 93h49v7H58zm0 17h28v7H58Z" fill="#d5f0e7"/>
  <path d="M241 58v31m-15-15h30" stroke="#17352f" stroke-width="5"/>
</svg>
